<svg xmlns="http://www.w3.org/2000/svg" width="230" height="169" viewBox="0 0 230 169">
    <g fill="none" fill-rule="evenodd">
        <g fill="#0AAFC4">
            <path d="M75.313 9.13h-14.26a1 1 0 1 1 0-2h14.26a1 1 0 1 1 0 2z"/>
            <path d="M68.184 16.26a1 1 0 0 1-1-1V1a1 1 0 1 1 2 0v14.26a1 1 0 0 1-1 1"/>
        </g>
        <g fill="#F9696A">
            <path d="M221.98 136.952a.997.997 0 0 1-.707-.293l-5.978-5.977a1 1 0 0 1 1.413-1.413l5.978 5.976a.999.999 0 0 1-.707 1.707"/>
            <path d="M216.002 136.952a.999.999 0 0 1-.707-1.707l5.978-5.977a1 1 0 0 1 1.414 1.414l-5.978 5.977a.997.997 0 0 1-.707.293"/>
        </g>
        <path fill="#5DBAA3" d="M19.666 144A2.67 2.67 0 0 0 17 146.667a2.67 2.67 0 0 0 2.666 2.666 2.67 2.67 0 0 0 2.667-2.666A2.67 2.67 0 0 0 19.666 144m0 7.333A4.671 4.671 0 0 1 15 146.667 4.672 4.672 0 0 1 19.666 142a4.673 4.673 0 0 1 4.667 4.667 4.672 4.672 0 0 1-4.667 4.666"/>
        <path fill="#FFBB41" d="M149.997 8.094l4.475 2.913.286-5.332-4.76 2.419zm5.381 5.696a.995.995 0 0 1-.546-.162l-7.378-4.804a.999.999 0 0 1 .093-1.729l7.848-3.987c.32-.161.7-.141 1 .053.298.195.471.535.453.892l-.47 8.791a1.004 1.004 0 0 1-1 .946z"/>
        <path fill="#FF919A" d="M130.997 163.094l4.475 2.913.286-5.332-4.76 2.419zm5.381 5.696a.995.995 0 0 1-.546-.162l-7.378-4.804a.999.999 0 0 1 .093-1.729l7.848-3.987c.32-.161.7-.141 1 .053.298.195.471.535.453.892l-.47 8.791a1.004 1.004 0 0 1-1 .946z"/>
        <path fill="#5872C8" d="M222 62.88h5.879V57H222v5.88zm6.879 2H221a1 1 0 0 1-1-1V56a1 1 0 0 1 1-1h7.879a1 1 0 0 1 1 1v7.88a1 1 0 0 1-1 1z"/>
        <path fill="#F3969B" d="M2.913 66.74l4.336 4.335 4.337-4.336-4.337-4.337-4.336 4.337zm4.336 6.75a.997.997 0 0 1-.707-.294l-5.75-5.75a.999.999 0 0 1 0-1.414l5.75-5.75a1.03 1.03 0 0 1 1.414 0l5.751 5.75a1 1 0 0 1 0 1.414l-5.751 5.75a.997.997 0 0 1-.707.293z"/>
        <g fill="#ADADAD" fill-rule="nonzero">
            <path d="M147.688 117.429h-4.644l-3.409-12.757a21.36 21.36 0 0 0-9.54-12.757l-3.28-2.003a1.415 1.415 0 0 1-.69-1.211v-5.257a1.411 1.411 0 0 1 .69-1.227l3.134-1.931a21.312 21.312 0 0 0 9.703-12.857l3.392-12.858h4.643c2.381 0 4.313-1.92 4.313-4.285 0-2.366-1.932-4.286-4.313-4.286H87.313C84.933 46 83 47.92 83 50.286c0 2.366 1.932 4.285 4.313 4.285h4.643l3.364 12.685a21.316 21.316 0 0 0 9.849 13.03l3.004 1.769c.432.262.702.725.702 1.233v5.485c0 .492-.253.95-.674 1.211l-3.408 2.115a21.374 21.374 0 0 0-8.71 10.514v.117a19.16 19.16 0 0 0-.65 2.014l-3.477 12.685h-4.643c-2.381 0-4.313 1.92-4.313 4.285 0 2.366 1.932 4.286 4.313 4.286h60.375c2.38 0 4.312-1.92 4.312-4.286 0-2.366-1.932-4.285-4.312-4.285zM85.874 50.286c0-.787.646-1.429 1.438-1.429h60.374c.792 0 1.438.642 1.438 1.429s-.646 1.428-1.438 1.428H87.313a1.436 1.436 0 0 1-1.437-1.428zm20.428 44.174l3.42-2.115a4.28 4.28 0 0 0 2.027-3.644v-5.474a4.276 4.276 0 0 0-2.111-3.683l-3.004-1.775a18.447 18.447 0 0 1-8.524-11.228l-1.668-6.255h25.37c.791 0 1.437-.642 1.437-1.429s-.646-1.428-1.437-1.428H95.938a1.825 1.825 0 0 0-.248 0l-.774-2.858h45.152l-3.207 12.143a18.46 18.46 0 0 1-8.406 11.183l-3.122 1.875a4.288 4.288 0 0 0-2.083 3.672v5.24c0 1.496.775 2.88 2.055 3.66l3.28 1.999a18.664 18.664 0 0 1 6.053 5.943l-5.25-2.227a30.466 30.466 0 0 0-23.775 0l-5.189 2.227a18.606 18.606 0 0 1 5.88-5.826zM95.707 114.57c.079.006.152.006.23 0 .792 0 1.438-.641 1.438-1.428v-2.857a1.419 1.419 0 0 0-.303-.826l1.078-4.03c.118-.418.258-.814.387-1.232l8.199-3.483a27.597 27.597 0 0 1 21.562 0l8.22 3.5c.13.401.276.786.371 1.2l1.079 4.028a1.41 1.41 0 0 0-.343.843v2.857c0 .787.646 1.428 1.438 1.428.078.006.151.006.23 0l.775 2.858H94.932l.775-2.858zm51.98 8.572H87.313a1.436 1.436 0 0 1-1.437-1.429c0-.787.646-1.428 1.438-1.428h60.374c.792 0 1.438.641 1.438 1.428 0 .787-.646 1.429-1.438 1.429z"/>
            <path d="M103.125 108.857c-.792 0-1.438.642-1.438 1.429v2.857c0 .787.646 1.428 1.438 1.428.792 0 1.438-.641 1.438-1.428v-2.857c0-.787-.646-1.429-1.438-1.429zM110.313 108.857c-.792 0-1.438.642-1.438 1.429v2.857c0 .787.646 1.428 1.438 1.428.791 0 1.437-.641 1.437-1.428v-2.857c0-.787-.646-1.429-1.438-1.429zM117.5 108.857c-.792 0-1.438.642-1.438 1.429v2.857c0 .787.646 1.428 1.438 1.428.792 0 1.438-.641 1.438-1.428v-2.857c0-.787-.646-1.429-1.438-1.429zM124.688 108.857c-.792 0-1.438.642-1.438 1.429v2.857c0 .787.646 1.428 1.438 1.428.791 0 1.437-.641 1.437-1.428v-2.857c0-.787-.646-1.429-1.438-1.429zM131.875 108.857c-.792 0-1.438.642-1.438 1.429v2.857c0 .787.646 1.428 1.438 1.428.792 0 1.438-.641 1.438-1.428v-2.857c0-.787-.646-1.429-1.438-1.429zM127.563 60.286h5.75c.791 0 1.437-.642 1.437-1.429s-.646-1.428-1.438-1.428h-5.75c-.791 0-1.437.641-1.437 1.428 0 .787.646 1.429 1.438 1.429z"/>
        </g>
    </g>
</svg>
