<svg xmlns="http://www.w3.org/2000/svg" xmlns:xlink="http://www.w3.org/1999/xlink" width="182" height="134" viewBox="0 0 182 134">
    <defs>
        <path id="a" d="M0 133.152h181.788V.622H0z"/>
        <path id="c" d="M1.335.202a.847.847 0 0 0-.847.848c0 .469.379.848.847.848h3.81a.847.847 0 0 0 0-1.696h-3.81zm-.847 0h5.504v1.696H.488V.202z"/>
        <path id="e" d="M1.335.206a.847.847 0 0 0 0 1.696h6.67a.847.847 0 1 0 0-1.696h-6.67zm-.847 0h8.363v1.696H.488V.206z"/>
        <path id="g" d="M1.552.206a.848.848 0 0 0 0 1.696h1.905a.847.847 0 1 0 0-1.696H1.552zm-.847 0h3.599v1.696H.705V.206z"/>
    </defs>
    <g fill="none" fill-rule="evenodd">
        <g transform="translate(0 .226)">
            <mask id="b" fill="#fff">
                <use xlink:href="#a"/>
            </mask>
            <g stroke="#ADADAD" stroke-linecap="round" stroke-linejoin="round" stroke-width="3.138" mask="url(#b)">
                <g transform="translate(69.414 37.938)">
                    <ellipse cx="21.586" cy="33.924" rx="21.586" ry="21.588"/>
                    <path d="M21.586 24.672v9.252l4.626 4.626M35.494 50.423l-1.08 11.812a6.168 6.168 0 0 1-6.167 5.613H14.894a6.168 6.168 0 0 1-6.167-5.613l-1.08-11.812m.031-32.998l1.08-11.812A6.168 6.168 0 0 1 14.894 0H28.31a6.168 6.168 0 0 1 6.167 5.613l1.08 11.812"/>
                </g>
            </g>
        </g>
        <path fill="#0AAFC4" d="M46.823 8.59h-12.07a.847.847 0 0 1-.847-.847c0-.47.378-.849.846-.849h12.07c.469 0 .847.38.847.849a.847.847 0 0 1-.846.848z"/>
        <path fill="#0AAFC4" d="M40.788 14.638a.847.847 0 0 1-.847-.849V1.696a.847.847 0 1 1 1.693 0V13.79a.847.847 0 0 1-.846.849"/>
        <path fill="#F9696A" d="M164.206 122.086a.843.843 0 0 1-.599-.248l-5.06-5.07a.846.846 0 1 1 1.197-1.2l5.06 5.07a.848.848 0 0 1-.598 1.448"/>
        <path fill="#F9696A" d="M159.146 122.086a.848.848 0 0 1-.598-1.448l5.06-5.069a.846.846 0 1 1 1.197 1.2l-5.06 5.069a.843.843 0 0 1-.6.248"/>
        <path fill="#5DBAA3" d="M52.726 127.16a2.262 2.262 0 0 0 0 4.522 2.262 2.262 0 0 0 0-4.523m0 6.22a3.958 3.958 0 0 1 0-7.916 3.959 3.959 0 0 1 0 7.915"/>
        <path fill="#FFBB41" d="M115.564 16.927l3.788 2.47.242-4.522-4.03 2.052zm4.555 4.83a.841.841 0 0 1-.462-.137l-6.246-4.074a.848.848 0 0 1 .079-1.467l6.643-3.38a.85.85 0 0 1 1.23.8l-.399 7.456a.852.852 0 0 1-.845.803z"/>
        <path fill="#5872C8" d="M175.119 47.04h4.976v-4.988h-4.976v4.987zm5.823 1.695h-6.67a.847.847 0 0 1-.846-.848v-6.683c0-.468.378-.848.846-.848h6.67c.468 0 .846.38.846.848v6.683a.847.847 0 0 1-.846.848z"/>
        <path fill="#F3969B" d="M2.044 48.15l3.67 3.678 3.671-3.677-3.671-3.678-3.67 3.678zm3.67 5.725a.843.843 0 0 1-.598-.248L.248 48.75a.848.848 0 0 1 0-1.199l4.868-4.877a.87.87 0 0 1 1.197 0l4.868 4.877a.849.849 0 0 1 0 1.2l-4.868 4.876a.843.843 0 0 1-.599.248z"/>
        <g>
            <path d="M132.42 56.886a3.084 3.084 0 0 0-3.077 3.084v23.297h12.062V59.97c0-1.7-1.381-3.084-3.078-3.084h-5.906zm-1.384 3.084c0-.765.62-1.387 1.385-1.387h5.906c.763 0 1.385.622 1.385 1.387v21.601h-8.676v-21.6z"/>
        </g>
        <g transform="translate(36.4 68.075)">
            <mask id="d" fill="#fff">
                <use xlink:href="#c"/>
            </mask>
            <path d="M1.335.202a.847.847 0 0 0-.847.848c0 .469.379.848.847.848h3.81a.847.847 0 0 0 0-1.696h-3.81z" mask="url(#d)"/>
        </g>
        <path d="M37.735 72.095a.847.847 0 0 0-.847.848c0 .469.379.849.847.849h11.434c.468 0 .846-.38.846-.85a.847.847 0 0 0-.846-.847H37.735z"/>
        <g transform="translate(36.4 75.707)">
            <mask id="f" fill="#fff">
                <use xlink:href="#e"/>
            </mask>
            <path d="M1.335.206a.847.847 0 0 0 0 1.696h6.67a.847.847 0 1 0 0-1.696h-6.67z" mask="url(#f)"/>
        </g>
        <g transform="translate(45.712 75.707)">
            <mask id="h" fill="#fff">
                <use xlink:href="#g"/>
            </mask>
            <path d="M1.552.206a.848.848 0 0 0 0 1.696h1.905a.847.847 0 1 0 0-1.696H1.552z" mask="url(#h)"/>
        </g>
    </g>
</svg>
