<?xml version="1.0" encoding="UTF-8"?>
<svg width="46px" height="46px" viewBox="0 0 46 46" version="1.1" xmlns="http://www.w3.org/2000/svg" xmlns:xlink="http://www.w3.org/1999/xlink">
    <title>Combined Shape</title>
    <g id="Page-1" stroke="none" stroke-width="1" fill="none" fill-rule="evenodd">
        <path d="M23,0 C35.7025492,0 46,10.2974508 46,23 C46,35.7025492 35.7025492,46 23,46 C10.2974508,46 0,35.7025492 0,23 C0,10.2974508 10.2974508,0 23,0 Z M23.8937994,30.1598979 C22.312839,30.0740222 20.7608723,30.8517644 19.2821951,32.4720606 C18.9439357,32.8431085 18.9680971,33.4199339 19.336961,33.7601962 C19.510923,33.9206055 19.7299863,34 19.9490495,34 C20.193885,34 20.437915,33.9003518 20.6175147,33.7051061 C21.7071935,32.5109477 22.7702947,31.9292614 23.782657,31.9794906 C25.1356949,32.0451126 26.0562439,33.2360303 26.0820161,33.2700565 C26.3792012,33.67189 26.9437724,33.7569556 27.3464622,33.4596312 C27.7491521,33.1606865 27.8353277,32.5903423 27.5381426,32.1852682 C27.481766,32.107494 26.1190635,30.28061 23.8937994,30.1598979 Z M23.9292361,16.6814635 C23.5313785,16.3760377 22.9627804,16.4530017 22.6591523,16.8524048 L22.6591523,16.8524048 L19.5044799,21.005224 C19.0574942,21.5553146 18.8497062,22.2447507 18.9205797,22.9471491 C18.9946746,23.6860042 19.3796461,24.3900229 19.9740163,24.8777321 L19.9740163,24.8777321 L22.4578074,26.222578 C22.590695,26.2922507 22.7340526,26.3254668 22.8741887,26.3254668 C23.2019782,26.3254668 23.5176871,26.1464241 23.678763,25.8337069 C23.909907,25.3865051 23.7367503,24.8364145 23.2921807,24.6047122 L23.2921807,24.6047122 L21.13779,23.4802266 L21.120877,23.4664541 C20.8945653,23.2817403 20.7504024,23.0257335 20.7238248,22.7648658 C20.7085226,22.6109376 20.7278517,22.3808556 20.9267805,22.1361908 L20.9267805,22.1361908 L24.0991712,17.9590671 C24.4027994,17.5588539 24.3270937,16.9868893 23.9292361,16.6814635 Z M28.9561069,16.6604657 C28.6837881,16.3022423 28.1830039,16.1944398 27.7837834,16.4262668 C27.3504891,16.6782229 27.2014939,17.2356048 27.451967,17.6714645 C27.4994844,17.7549098 28.6519827,19.7219494 30.849864,20.0905668 C31.0882564,20.1310742 31.3266488,20.1505178 31.5674573,20.1505178 C32.9084145,20.1505178 34.2912515,19.5331849 35.6893907,18.3066206 C36.0663084,17.9760802 36.105772,17.4000649 35.7771771,17.0209156 C35.4485821,16.6417662 34.8767625,16.602069 34.4990394,16.9326094 C33.2837215,17.9979542 32.1594114,18.4573082 31.1623513,18.2944684 C29.8125349,18.0765386 29.0264843,16.7681493 29.0192359,16.755187 L29.0192359,16.755187 Z M11.6882698,16.4521916 C11.4369914,16.0187623 10.8836955,15.8713154 10.4528173,16.1224613 C10.0195231,16.3744174 9.87133319,16.9317993 10.1218063,17.367659 C10.1693237,17.4511042 11.3226274,19.418954 13.5205087,19.7867613 C13.7580957,19.8272687 13.9972935,19.8467122 14.2372966,19.8467122 C15.5774485,19.8467122 16.9610908,19.2285692 18.3584246,18.0028151 C18.7353423,17.6722747 18.7748059,17.0970695 18.446211,16.71711 C18.1176161,16.3379607 17.5457965,16.2982634 17.1680734,16.6288039 C15.9535608,17.6941487 14.8348884,18.1543128 13.8313852,17.991473 C12.4936495,17.7751635 11.7100151,16.4886482 11.6882698,16.4521916 Z" id="Combined-Shape" fill="#0B748C"></path>
    </g>
</svg>